<svg width="450" height="450" xmlns="http://www.w3.org/2000/svg">
 <g id="Layer_1">
  <title>Layer 1</title>
  <g transform="rotate(-91 52.5482 70.2923)" stroke="null">
   <g stroke="null" id="svg_7"/>
   <g stroke="null" id="svg_6"/>
   <g stroke="null" id="svg_2">
    <g stroke="null" id="svg_4">
     <path stroke="null" d="m52.91072,32.50674c-19.7822,-0.21268 -35.9801,16.53055 -36.18219,37.40108c-0.20017,20.86749 15.6739,37.95792 35.45609,38.1701c19.78316,0.21319 35.98346,-16.5341 36.18315,-37.40261c0.20258,-20.86901 -15.67438,-37.95843 -35.45706,-38.16858l0,0z" fill="url(#svg_5)"/>
    </g>
    <g stroke="null" id="svg_3">
     <path stroke="null" d="m42.92627,45.09119c-1.52437,5.60595 1.55084,11.45504 6.86304,13.06058c5.31413,1.6091 10.85682,-1.63295 12.38168,-7.23992c1.52293,-5.60443 -1.54939,-11.45199 -6.86304,-13.05957c-5.31365,-1.60808 -10.85971,1.63397 -12.38168,7.2389l0,0z" fill="#FFFFFF"/>
    </g>
   </g>
   <g stroke="null" id="svg_1"/>
  </g>
  <g stroke="null">
   <g stroke="null" id="svg_14"/>
   <g stroke="null" id="svg_13"/>
   <g stroke="null" id="svg_9">
    <g stroke="null" id="svg_11">
     <path stroke="null" d="m216.46019,178.30477c-20.63373,-0.207 -37.52888,16.08894 -37.73967,36.40192c-0.20879,20.31002 16.34859,36.94389 36.98232,37.15039c20.63473,0.2075 37.53239,-16.09239 37.74067,-36.4034c0.2113,-20.3115 -16.34909,-36.94438 -36.98332,-37.14891l0,0z" fill="url(#svg_12)"/>
    </g>
    <g stroke="null" id="svg_10">
     <path stroke="null" d="m206.04596,190.55303c-1.58999,5.45619 1.61759,11.14902 7.15847,12.71167c5.54288,1.56611 11.32416,-1.58933 12.91465,-7.04651c1.58848,-5.45471 -1.61609,-11.14606 -7.15847,-12.71068c-5.54238,-1.56512 -11.32717,1.59032 -12.91465,7.04552l0,0z" fill="#FFFFFF"/>
    </g>
   </g>
   <g stroke="null" id="svg_8"/>
  </g>
  <g stroke="null">
   <g stroke="null" id="svg_21"/>
   <g stroke="null" id="svg_20"/>
   <g stroke="null" id="svg_16">
    <g stroke="null" id="svg_18">
     <path stroke="null" d="m131.76855,99.78309c-20.63373,-0.21263 -37.52888,16.5264 -37.73967,37.39169c-0.20879,20.86225 16.34859,37.94839 36.98232,38.16052c20.63473,0.21314 37.53239,-16.52995 37.74068,-37.39321c0.2113,-20.86377 -16.34909,-37.9489 -36.98332,-38.15899l0,0z" fill="url(#svg_19)"/>
    </g>
    <g stroke="null" id="svg_17">
     <path stroke="null" d="m121.35432,112.36438c-1.58999,5.60454 1.61759,11.45216 7.15847,13.0573c5.54288,1.60869 11.32416,-1.63254 12.91465,-7.2381c1.58848,-5.60302 -1.61609,-11.44912 -7.15847,-13.05629c-5.54238,-1.60768 -11.32717,1.63356 -12.91465,7.23709l0,0z" fill="#FFFFFF"/>
    </g>
   </g>
   <g stroke="null" id="svg_15"/>
  </g>
  <g stroke="null">
   <g stroke="null" id="svg_28"/>
   <g stroke="null" id="svg_27"/>
   <g stroke="null" id="svg_23">
    <g stroke="null" id="svg_25">
     <path stroke="null" d="m301.3014,269.12384c-19.43688,-0.19301 -35.35202,15.00173 -35.55059,33.94206c-0.19668,18.93757 15.40029,34.4474 34.83717,34.63996c19.43782,0.19348 35.35533,-15.00495 35.55154,-33.94345c0.19904,-18.93896 -15.40076,-34.44786 -34.83811,-34.63858l0,0z" fill="url(#svg_26)"/>
    </g>
    <g stroke="null" id="svg_24">
     <path stroke="null" d="m291.49124,280.54442c-1.49776,5.08749 1.52377,10.39563 6.74324,11.85268c5.22137,1.46028 10.6673,-1.48193 12.16554,-6.57034c1.49634,-5.0861 -1.52235,-10.39286 -6.74324,-11.85176c-5.22089,-1.45936 -10.67014,1.48285 -12.16554,6.56942l0,0z" fill="#FFFFFF"/>
    </g>
   </g>
   <g stroke="null" id="svg_22"/>
  </g>
  <g stroke="null">
   <g stroke="null" id="svg_35"/>
   <g stroke="null" id="svg_34"/>
   <g stroke="null" id="svg_30">
    <g stroke="null" id="svg_32">
     <path stroke="null" d="m391.48392,357.02122c-18.3888,-0.20236 -33.44578,15.72827 -33.63364,35.58589c-0.18607,19.85473 14.56988,36.11571 32.95868,36.31759c18.3897,0.20285 33.44891,-15.73165 33.63453,-35.58734c0.18831,-19.85618 -14.57033,-36.11619 -32.95958,-36.31614l0,0z" fill="url(#svg_33)"/>
    </g>
    <g stroke="null" id="svg_31">
     <path stroke="null" d="m382.20275,368.99491c-1.417,5.33388 1.4416,10.89909 6.37963,12.42671c4.93982,1.531 10.0921,-1.5537 11.50955,-6.88854c1.41566,-5.33243 -1.44026,-10.89619 -6.37963,-12.42575c-4.93937,-1.53004 -10.09479,1.55467 -11.50955,6.88758l0,0z" fill="#FFFFFF"/>
    </g>
   </g>
   <g stroke="null" id="svg_29"/>
  </g>
 </g>
 <defs>
  <linearGradient gradientTransform="matrix(0.004908017814159393,-0.4881756603717804,0.48112982511520386,0.004979885648936033,-155.8182201385498,539.4396839141846)" y2="1159.6104" x2="1047.2471" y1="1159.6104" x1="898.3535" gradientUnits="userSpaceOnUse" id="svg_5">
   <stop stop-color="#F5F8E2" offset="0"/>
   <stop stop-color="#F4C0D7" offset="0.2205"/>
   <stop stop-color="#E0B9D4" offset="0.3082"/>
   <stop stop-color="#BEAECF" offset="0.4792"/>
   <stop stop-color="#BAB1D0" offset="0.5041"/>
   <stop stop-color="#9CC1D5" offset="0.6961"/>
   <stop stop-color="#8AC9D8" offset="0.8586"/>
   <stop stop-color="#83CCD9" offset="0.971"/>
  </linearGradient>
  <linearGradient gradientTransform="matrix(0.005119286011904478,-0.4939916133880615,0.5018402338027954,0.0050392174161970615,-366.48937129974365,689.7924194335938)" y2="1159.6104" x2="1047.2471" y1="1159.6104" x1="898.3535" gradientUnits="userSpaceOnUse" id="svg_12">
   <stop stop-color="#F5F8E2" offset="0"/>
   <stop stop-color="#F4C0D7" offset="0.2205"/>
   <stop stop-color="#E0B9D4" offset="0.3082"/>
   <stop stop-color="#BEAECF" offset="0.4792"/>
   <stop stop-color="#BAB1D0" offset="0.5041"/>
   <stop stop-color="#9CC1D5" offset="0.6961"/>
   <stop stop-color="#8AC9D8" offset="0.8586"/>
   <stop stop-color="#83CCD9" offset="0.971"/>
  </linearGradient>
  <linearGradient gradientTransform="matrix(0.005119286011904478,-0.5074232816696167,0.5018402934074402,0.005176232196390629,-366.4893798828125,625.1781616210938)" y2="1159.6104" x2="1047.2471" y1="1159.6104" x1="898.3535" gradientUnits="userSpaceOnUse" id="svg_19">
   <stop stop-color="#F5F8E2" offset="0"/>
   <stop stop-color="#F4C0D7" offset="0.2205"/>
   <stop stop-color="#E0B9D4" offset="0.3082"/>
   <stop stop-color="#BEAECF" offset="0.4792"/>
   <stop stop-color="#BAB1D0" offset="0.5041"/>
   <stop stop-color="#9CC1D5" offset="0.6961"/>
   <stop stop-color="#8AC9D8" offset="0.8586"/>
   <stop stop-color="#83CCD9" offset="0.971"/>
  </linearGradient>
  <linearGradient gradientTransform="matrix(0.004822343122214079,-0.4606107175350189,0.4727313816547394,0.0046986970119178295,-334.612548828125,746.0477294921875)" y2="1159.6104" x2="1047.2471" y1="1159.6104" x1="898.3535" gradientUnits="userSpaceOnUse" id="svg_26">
   <stop stop-color="#F5F8E2" offset="0"/>
   <stop stop-color="#F4C0D7" offset="0.2205"/>
   <stop stop-color="#E0B9D4" offset="0.3082"/>
   <stop stop-color="#BEAECF" offset="0.4792"/>
   <stop stop-color="#BAB1D0" offset="0.5041"/>
   <stop stop-color="#9CC1D5" offset="0.6961"/>
   <stop stop-color="#8AC9D8" offset="0.8586"/>
   <stop stop-color="#83CCD9" offset="0.971"/>
  </linearGradient>
  <linearGradient gradientTransform="matrix(0.004562311340123415,-0.4829178750514984,0.44724059104919434,0.004926248919218779,-306.69834899902344,857.0428466796875)" y2="1159.6104" x2="1047.2471" y1="1159.6104" x1="898.3535" gradientUnits="userSpaceOnUse" id="svg_33">
   <stop stop-color="#F5F8E2" offset="0"/>
   <stop stop-color="#F4C0D7" offset="0.2205"/>
   <stop stop-color="#E0B9D4" offset="0.3082"/>
   <stop stop-color="#BEAECF" offset="0.4792"/>
   <stop stop-color="#BAB1D0" offset="0.5041"/>
   <stop stop-color="#9CC1D5" offset="0.6961"/>
   <stop stop-color="#8AC9D8" offset="0.8586"/>
   <stop stop-color="#83CCD9" offset="0.971"/>
  </linearGradient>
 </defs>
</svg>