<svg width="100" height="300" xmlns="http://www.w3.org/2000/svg">
 <title>mission.svg</title>
 <defs>
  <linearGradient id="svg_25" x1="0.49491" y1="0.99997" x2="0.50511" y2="0.00003">
   <stop offset="0" stop-color="#F5F8E2"/>
   <stop offset="0.2205" stop-color="#F4C0D7"/>
   <stop offset="0.3082" stop-color="#E0B9D4"/>
   <stop offset="0.4792" stop-color="#BEAECF"/>
   <stop offset="0.5041" stop-color="#BAB1D0"/>
   <stop offset="0.6961" stop-color="#9CC1D5"/>
   <stop offset="0.8586" stop-color="#8AC9D8"/>
   <stop offset="0.971" stop-color="#83CCD9"/>
  </linearGradient>
  <linearGradient y2="0.00003" x2="0.50511" y1="0.99997" x1="0.49491" id="svg_15">
   <stop stop-color="#F5F8E2" offset="0"/>
   <stop stop-color="#F4C0D7" offset="0.2205"/>
   <stop stop-color="#E0B9D4" offset="0.3082"/>
   <stop stop-color="#BEAECF" offset="0.4792"/>
   <stop stop-color="#BAB1D0" offset="0.5041"/>
   <stop stop-color="#9CC1D5" offset="0.6961"/>
   <stop stop-color="#8AC9D8" offset="0.8586"/>
   <stop stop-color="#83CCD9" offset="0.971"/>
  </linearGradient>
 </defs>
 <g id="Layer_1">
  <title>Layer 1</title>

  <g transform="rotate(-90 51.5 138.867)" stroke="null" id="svg_18">
   <g stroke="null" id="svg_27"/>
   <g stroke="null" id="svg_26"/>
   <g stroke="null" id="svg_20">
    <g stroke="null" id="svg_23">
     <path stroke="null" id="svg_24" fill="url(#svg_25)" d="m51.83721,105.50176c-18.39933,-0.1878 -33.46492,14.59653 -33.65289,33.02529c-0.18618,18.42607 14.57822,33.51698 32.97755,33.70434c18.40023,0.18826 33.46806,-14.59967 33.65378,-33.02664c0.18841,-18.42742 -14.57866,-33.51743 -32.97844,-33.703l0,0l0,0.00001z"/>
    </g>
    <g stroke="null" id="svg_21">
     <path stroke="null" id="svg_22" fill="#FFFFFF" d="m42.55072,116.61388c-1.41782,4.95008 1.44243,10.11484 6.38329,11.53254c4.94265,1.42084 10.09788,-1.44191 11.51614,-6.39288c1.41647,-4.94872 -1.44108,-10.11216 -6.38329,-11.53164c-4.9422,-1.41994 -10.10057,1.4428 -11.51614,6.39198l0,0z"/>
    </g>
   </g>
   <g stroke="null" id="svg_19"/>
  </g>
  <g id="svg_8" transform="matrix(0 1.28662 -1.45142 0 537.618 358.779)">
   <g id="svg_17"/>
   <g id="svg_16"/>
   <g id="svg_10">
    <g id="svg_13">
     <path d="m-91.28192,311.40485c-14.37049,-0.13503 -26.13721,10.49487 -26.28402,23.74511c-0.14541,13.2483 11.38607,24.09864 25.75656,24.23334c14.37119,0.13535 26.13966,-10.49713 26.28472,-23.74608c0.14716,-13.24927 -11.38642,-24.09896 -25.75726,-24.23238l0,0l0,0.00001z" fill="url(#svg_15)" id="svg_14"/>
    </g>
    <g id="svg_11">
     <path d="m-98.53498,319.39444c-1.10736,3.55909 1.12658,7.27255 4.98556,8.29187c3.86037,1.02158 7.88678,-1.03673 8.99449,-4.59646c1.10631,-3.55813 -1.12553,-7.27062 -4.98556,-8.29123c-3.86002,-1.02093 -7.88888,1.03737 -8.99449,4.59582l0,0z" fill="#FFFFFF" id="svg_12"/>
    </g>
   </g>
   <g id="svg_9"/>
  </g>
  <g stroke="null" id="svg_36">
   <g stroke="null" id="svg_28"/>
   <g stroke="null" id="svg_29"/>
   <g stroke="null" id="svg_34">
    <g stroke="null" id="svg_31">
     <path stroke="null" id="svg_30" fill="url(#svg_25)" d="m48.34733,11.00164c-18.95157,-0.17373 -34.46935,13.50288 -34.66296,30.55086c-0.19176,17.04549 15.01578,31.00571 33.96735,31.17903c18.9525,0.17415 34.47258,-13.50579 34.66388,-30.55211c0.19407,-17.04674 -15.01623,-31.00613 -33.96827,-31.17779l0,0l0,0.00001z"/>
    </g>
    <g stroke="null" id="svg_33">
     <path stroke="null" id="svg_32" fill="#FFFFFF" d="m38.78211,21.28118c-1.46037,4.57919 1.48572,9.35698 6.57488,10.66846c5.091,1.31438 10.40096,-1.33387 11.86179,-5.91389c1.45898,-4.57794 -1.48433,-9.3545 -6.57488,-10.66763c-5.09054,-1.31355 -10.40373,1.3347 -11.86179,5.91306l0,0z"/>
    </g>
   </g>
   <g stroke="null" id="svg_35"/>
  </g>
 </g>
</svg>