<svg width="250" height="300" xmlns="http://www.w3.org/2000/svg">
 <defs>
  <linearGradient gradientTransform="matrix(-0.011866018176078796,0.5135926604270935,-0.4580090641975403,-0.01330603938549757,132.49339294433594,31.197540283203125)" y2="250.522" x2="270.292" y1="250.522" x1="121.4067" gradientUnits="userSpaceOnUse" id="svg_10">
   <stop stop-color="#F5F8E2" offset="0"/>
   <stop stop-color="#F4C0D7" offset="0.2205"/>
   <stop stop-color="#E0B9D4" offset="0.3082"/>
   <stop stop-color="#BEAECF" offset="0.4792"/>
   <stop stop-color="#BAB1D0" offset="0.5041"/>
   <stop stop-color="#9CC1D5" offset="0.6961"/>
   <stop stop-color="#8AC9D8" offset="0.8586"/>
   <stop stop-color="#83CCD9" offset="0.971"/>
  </linearGradient>
  <linearGradient gradientTransform="matrix(0.004673097748309374,-0.5136944651603699,0.4581007659435272,0.0052402145229279995,-416.5662536621094,622.0971069335938)" y2="1159.6104" x2="1047.2471" y1="1159.6104" x1="898.3535" gradientUnits="userSpaceOnUse" id="svg_7">
   <stop stop-color="#F5F8E2" offset="0"/>
   <stop stop-color="#F4C0D7" offset="0.2205"/>
   <stop stop-color="#E0B9D4" offset="0.3082"/>
   <stop stop-color="#BEAECF" offset="0.4792"/>
   <stop stop-color="#BAB1D0" offset="0.5041"/>
   <stop stop-color="#9CC1D5" offset="0.6961"/>
   <stop stop-color="#8AC9D8" offset="0.8586"/>
   <stop stop-color="#83CCD9" offset="0.971"/>
  </linearGradient>
  <linearGradient gradientTransform="matrix(0.45805516839027405,-0.00986393354833126,0.00879642367362976,0.5136434435844421,-223.9474639892578,-522.2951049804688)" y2="1285.1826" x2="1025.4385" y1="1285.1826" x1="876.5508" gradientUnits="userSpaceOnUse" id="svg_4">
   <stop stop-color="#F5F8E2" offset="0"/>
   <stop stop-color="#F4C0D7" offset="0.3115"/>
   <stop stop-color="#BEAECF" offset="0.6015"/>
   <stop stop-color="#83C6D6" offset="0.971"/>
  </linearGradient>
 </defs>
 <g>
  <title>Layer 1</title>
  <g transform="rotate(44 119.197 128.451)" stroke="null" id="svg_1">
   <g stroke="null" id="svg_9">
    <path stroke="null" d="m49.51184,129.82854c0.67943,-21.10779 -14.02846,-38.83615 -32.85325,-39.59855c-18.82342,-0.76034 -34.63544,15.734 -35.31442,36.84333c-0.68081,21.10984 14.03075,38.83924 32.85508,39.59907c18.82388,0.76291 34.63453,-15.73349 35.31258,-36.84384l0,0z" fill="url(#svg_10)"/>
   </g>
   <g stroke="null" id="svg_8">
    <path stroke="null" d="m6.26691,144.55817c-1.45141,5.67382 1.47661,11.59372 6.53455,13.2187c5.05977,1.62858 10.33717,-1.65272 11.78858,-7.32757c1.45003,-5.67228 -1.47523,-11.59063 -6.53409,-13.21767c-5.05886,-1.62755 -10.33992,1.65375 -11.78903,7.32654l0,0z" fill="#FFFFFF"/>
   </g>
   <g stroke="null" id="svg_6">
    <path stroke="null" d="m119.54325,90.2079c-18.83533,-0.21526 -34.25793,16.73067 -34.45035,37.85387c-0.19059,21.12012 14.92367,38.41745 33.75901,38.6322c18.83625,0.21577 34.26114,-16.73426 34.45127,-37.85541c0.19288,-21.12166 -14.92413,-38.41796 -33.75992,-38.63065l0,0z" fill="url(#svg_7)"/>
   </g>
   <g stroke="null" id="svg_5">
    <path stroke="null" d="m110.0367,102.9447c-1.45141,5.67382 1.47661,11.59372 6.53455,13.2187c5.05977,1.62858 10.33717,-1.65272 11.78903,-7.32757c1.45003,-5.67228 -1.47523,-11.59063 -6.53455,-13.21767c-5.05932,-1.62755 -10.33992,1.65375 -11.78903,7.32654l0,0z" fill="#FFFFFF"/>
   </g>
   <g stroke="null" id="svg_3">
    <path stroke="null" d="m257.06518,127.71293c-0.36056,-21.11858 -15.92014,-37.90781 -34.75456,-37.50144c-18.83121,0.40791 -33.80574,17.8568 -33.44426,38.97692c0.36056,21.11704 15.92518,37.90935 34.75731,37.50093c18.83258,-0.40226 33.80711,-17.8568 33.44151,-38.97641l0,0z" fill="url(#svg_4)"/>
   </g>
   <g stroke="null" id="svg_2">
    <path stroke="null" d="m232.87412,124.32426c-1.45141,5.67382 1.47661,11.59372 6.53501,13.2187c5.05977,1.62858 10.33671,-1.65272 11.78858,-7.32757c1.45003,-5.67228 -1.47523,-11.59063 -6.53455,-13.21767c-5.05932,-1.62755 -10.33946,1.65375 -11.78903,7.32654l0,0z" fill="#FFFFFF"/>
   </g>
  </g>
 </g>
</svg>