<?xml version="1.0" encoding="utf-8"?>
<!-- Generator: Adobe Illustrator 16.0.0, SVG Export Plug-In . SVG Version: 6.00 Build 0)  -->
<!DOCTYPE svg PUBLIC "-//W3C//DTD SVG 1.1//EN" "http://www.w3.org/Graphics/SVG/1.1/DTD/svg11.dtd">
<svg version="1.1" xmlns="http://www.w3.org/2000/svg" xmlns:xlink="http://www.w3.org/1999/xlink" x="0px" y="0px"
	 width="100%" height="100%" viewBox="0 0 841.89 595.28" enable-background="new 0 0 841.89 595.28" xml:space="preserve">
<g id="Calque_1">
</g>
<g id="Layer_01">
	<polyline fill="none" stroke="#13007C" stroke-width="0.914" stroke-linecap="round" stroke-linejoin="round" points="
		183.791,315.203 183.791,305.865 199.726,295.612 215.661,305.865 215.661,315.203 	"/>
	<rect x="301.968" y="302.533" fill="#13007C" width="27.994" height="12.67"/>
	<rect x="652.79" y="317.831" fill="#13007C" width="65.518" height="18.978"/>
	<polyline fill="none" stroke="#13007C" stroke-width="0.914" stroke-linecap="round" stroke-linejoin="round" points="
		711.272,276.375 711.272,211.591 718.308,211.591 718.308,315.036 	"/>
	<polyline fill="none" stroke="#13007C" stroke-width="0.914" stroke-linecap="round" stroke-linejoin="round" points="
		675.664,276.375 707.011,264.925 711.272,276.375 	"/>
	<polyline fill="none" stroke="#13007C" stroke-width="0.914" stroke-linecap="round" stroke-linejoin="round" points="
		640.058,276.375 671.403,264.925 675.664,276.375 	"/>
	<polyline fill="none" stroke="#13007C" stroke-width="0.914" stroke-linecap="round" stroke-linejoin="round" points="
		604.451,276.375 635.799,264.925 640.058,276.375 	"/>

		<line fill="none" stroke="#13007C" stroke-width="0.914" stroke-linecap="round" stroke-linejoin="round" x1="604.451" y1="315.036" x2="604.451" y2="276.375"/>
	<g>
		<rect x="492.026" y="317.831" fill="#13007C" width="27.992" height="14.403"/>

			<rect x="538.663" y="305.008" fill="none" stroke="#13007C" stroke-width="1.0219" stroke-linecap="round" stroke-linejoin="round" width="3.636" height="10.195"/>

			<rect x="525.653" y="264.359" fill="none" stroke="#13007C" stroke-width="1.0219" stroke-linecap="round" stroke-linejoin="round" width="19.316" height="50.844"/>

			<rect x="538.663" y="267.888" fill="none" stroke="#13007C" stroke-width="1.0219" stroke-linecap="round" stroke-linejoin="round" width="3.636" height="7.898"/>

			<rect x="528.324" y="267.888" fill="none" stroke="#13007C" stroke-width="1.0219" stroke-linecap="round" stroke-linejoin="round" width="3.637" height="7.898"/>

			<rect x="533.494" y="267.888" fill="none" stroke="#13007C" stroke-width="1.0219" stroke-linecap="round" stroke-linejoin="round" width="3.635" height="7.898"/>

			<rect x="538.663" y="292.636" fill="none" stroke="#13007C" stroke-width="1.0219" stroke-linecap="round" stroke-linejoin="round" width="3.636" height="7.896"/>

			<rect x="538.663" y="280.263" fill="none" stroke="#13007C" stroke-width="1.0219" stroke-linecap="round" stroke-linejoin="round" width="3.636" height="7.898"/>

			<rect x="528.324" y="292.636" fill="none" stroke="#13007C" stroke-width="1.0219" stroke-linecap="round" stroke-linejoin="round" width="3.637" height="7.896"/>

			<rect x="533.494" y="292.636" fill="none" stroke="#13007C" stroke-width="1.0219" stroke-linecap="round" stroke-linejoin="round" width="3.635" height="7.896"/>

			<rect x="528.324" y="280.263" fill="none" stroke="#13007C" stroke-width="1.0219" stroke-linecap="round" stroke-linejoin="round" width="3.637" height="7.898"/>

			<rect x="533.494" y="280.263" fill="none" stroke="#13007C" stroke-width="1.0219" stroke-linecap="round" stroke-linejoin="round" width="3.635" height="7.898"/>

			<rect x="472.053" y="277.082" fill="none" stroke="#13007C" stroke-width="1.0219" stroke-linecap="round" stroke-linejoin="round" width="14.051" height="38.121"/>

			<rect x="479.893" y="280.263" fill="none" stroke="#13007C" stroke-width="1.0219" stroke-linecap="round" stroke-linejoin="round" width="3.637" height="7.898"/>

			<rect x="474.725" y="280.263" fill="none" stroke="#13007C" stroke-width="1.0219" stroke-linecap="round" stroke-linejoin="round" width="3.635" height="7.898"/>

			<rect x="479.893" y="292.636" fill="none" stroke="#13007C" stroke-width="1.0219" stroke-linecap="round" stroke-linejoin="round" width="3.637" height="7.896"/>

			<rect x="474.725" y="292.636" fill="none" stroke="#13007C" stroke-width="1.0219" stroke-linecap="round" stroke-linejoin="round" width="3.635" height="7.896"/>

			<rect x="474.725" y="305.008" fill="none" stroke="#13007C" stroke-width="1.0219" stroke-linecap="round" stroke-linejoin="round" width="3.635" height="10.195"/>

			<rect x="514.542" y="255.516" fill="none" stroke="#13007C" stroke-width="1.0219" stroke-linecap="round" stroke-linejoin="round" width="3.635" height="7.897"/>

			<rect x="509.374" y="255.516" fill="none" stroke="#13007C" stroke-width="1.0219" stroke-linecap="round" stroke-linejoin="round" width="3.636" height="7.897"/>

			<rect x="504.204" y="255.516" fill="none" stroke="#13007C" stroke-width="1.0219" stroke-linecap="round" stroke-linejoin="round" width="3.635" height="7.897"/>

			<rect x="499.036" y="255.516" fill="none" stroke="#13007C" stroke-width="1.0219" stroke-linecap="round" stroke-linejoin="round" width="3.636" height="7.897"/>

			<rect x="493.866" y="255.516" fill="none" stroke="#13007C" stroke-width="1.0219" stroke-linecap="round" stroke-linejoin="round" width="3.634" height="7.897"/>

			<rect x="514.542" y="267.888" fill="none" stroke="#13007C" stroke-width="1.0219" stroke-linecap="round" stroke-linejoin="round" width="3.635" height="7.898"/>

			<rect x="509.374" y="267.888" fill="none" stroke="#13007C" stroke-width="1.0219" stroke-linecap="round" stroke-linejoin="round" width="3.636" height="7.898"/>

			<rect x="504.204" y="267.888" fill="none" stroke="#13007C" stroke-width="1.0219" stroke-linecap="round" stroke-linejoin="round" width="3.635" height="7.898"/>

			<rect x="499.036" y="267.888" fill="none" stroke="#13007C" stroke-width="1.0219" stroke-linecap="round" stroke-linejoin="round" width="3.636" height="7.898"/>

			<rect x="493.866" y="267.888" fill="none" stroke="#13007C" stroke-width="1.0219" stroke-linecap="round" stroke-linejoin="round" width="3.634" height="7.898"/>

			<rect x="491.193" y="247.104" fill="none" stroke="#13007C" stroke-width="1.0219" stroke-linecap="round" stroke-linejoin="round" width="29.654" height="68.1"/>

			<rect x="514.542" y="280.263" fill="none" stroke="#13007C" stroke-width="1.0219" stroke-linecap="round" stroke-linejoin="round" width="3.635" height="7.898"/>

			<rect x="514.542" y="292.636" fill="none" stroke="#13007C" stroke-width="1.0219" stroke-linecap="round" stroke-linejoin="round" width="3.635" height="7.896"/>

			<rect x="509.374" y="280.263" fill="none" stroke="#13007C" stroke-width="1.0219" stroke-linecap="round" stroke-linejoin="round" width="3.636" height="7.898"/>

			<rect x="509.374" y="292.636" fill="none" stroke="#13007C" stroke-width="1.0219" stroke-linecap="round" stroke-linejoin="round" width="3.636" height="7.896"/>

			<rect x="504.204" y="280.263" fill="none" stroke="#13007C" stroke-width="1.0219" stroke-linecap="round" stroke-linejoin="round" width="3.635" height="7.898"/>

			<rect x="504.204" y="292.636" fill="none" stroke="#13007C" stroke-width="1.0219" stroke-linecap="round" stroke-linejoin="round" width="3.635" height="7.896"/>

			<rect x="499.036" y="280.263" fill="none" stroke="#13007C" stroke-width="1.0219" stroke-linecap="round" stroke-linejoin="round" width="3.636" height="7.898"/>

			<rect x="493.866" y="280.263" fill="none" stroke="#13007C" stroke-width="1.0219" stroke-linecap="round" stroke-linejoin="round" width="3.634" height="7.898"/>

			<rect x="499.036" y="292.636" fill="none" stroke="#13007C" stroke-width="1.0219" stroke-linecap="round" stroke-linejoin="round" width="3.636" height="7.896"/>

			<rect x="493.866" y="292.636" fill="none" stroke="#13007C" stroke-width="1.0219" stroke-linecap="round" stroke-linejoin="round" width="3.634" height="7.896"/>

			<rect x="493.866" y="305.008" fill="none" stroke="#13007C" stroke-width="1.0219" stroke-linecap="round" stroke-linejoin="round" width="3.634" height="10.195"/>
	</g>

		<rect x="400.534" y="294.891" fill="none" stroke="#13007C" stroke-width="0.914" stroke-linecap="round" stroke-linejoin="round" width="3.635" height="6.317"/>

		<rect x="395.365" y="294.891" fill="none" stroke="#13007C" stroke-width="0.914" stroke-linecap="round" stroke-linejoin="round" width="3.635" height="6.317"/>

		<rect x="395.365" y="305.008" fill="none" stroke="#13007C" stroke-width="1.0232" stroke-linecap="round" stroke-linejoin="round" width="3.635" height="10.221"/>
	<polygon fill="none" stroke="#13007C" stroke-width="0.914" stroke-linecap="round" stroke-linejoin="round" points="
		388.419,292.369 399.664,276.375 410.908,292.369 410.908,315.2 388.419,315.2 	"/>
	<rect x="392.178" y="317.831" fill="#13007C" width="14.969" height="6.775"/>

		<rect x="272.639" y="307.048" fill="none" stroke="#13007C" stroke-width="0.914" stroke-linecap="round" stroke-linejoin="round" width="3.635" height="8.155"/>
	<polyline fill="none" stroke="#13007C" stroke-width="0.914" stroke-linecap="round" stroke-linejoin="round" points="
		293.644,315.203 293.644,305.865 277.71,295.612 261.773,305.865 261.773,315.203 	"/>

		<rect x="201.161" y="307.048" fill="none" stroke="#13007C" stroke-width="0.914" stroke-linecap="round" stroke-linejoin="round" width="3.635" height="8.155"/>

		<rect x="236.328" y="304.441" fill="none" stroke="#13007C" stroke-width="0.914" stroke-linecap="round" stroke-linejoin="round" width="4.797" height="10.762"/>
	<polyline fill="none" stroke="#13007C" stroke-width="0.914" stroke-linecap="round" stroke-linejoin="round" points="
		217.689,315.203 217.689,302.88 238.717,289.352 259.746,302.88 259.746,315.203 	"/>
	<g>

			<rect x="114.353" y="267.835" fill="none" stroke="#13007C" stroke-width="0.914" stroke-linecap="round" stroke-linejoin="round" width="5.294" height="2.808"/>
		<path fill="#13007C" d="M119.646,272.375c0,0.812,0.277,1.601,0.784,2.235c0.458,0.572,0.916,1.145,1.374,1.717
			c0.507,0.634,0.784,1.421,0.784,2.234c0,10.87,0,21.737,0,32.606c0,0.773-0.404,1.474-0.963,1.964
			c-0.565,0.494-1.298,0.796-2.042,0.863c-0.861,0-1.723,0-2.583,0c-0.861,0-1.723,0-2.583,0c-0.745-0.067-1.478-0.369-2.042-0.863
			c-0.56-0.49-0.963-1.19-0.963-1.964c0-10.869,0-21.736,0-32.606c0-0.813,0.276-1.6,0.785-2.234
			c0.457-0.573,0.915-1.146,1.373-1.717c0.507-0.634,0.783-1.423,0.783-2.235c0-0.577,0-1.155,0-1.732c0.882,0,1.765,0,2.647,0
			c0.883,0,1.764,0,2.646,0C119.646,271.221,119.646,271.799,119.646,272.375z"/>

			<rect x="111.412" y="288.753" fill="#FFFFFF" stroke="#13007C" stroke-width="0.5712" stroke-miterlimit="10" width="11.176" height="9.84"/>
	</g>
	<path fill="#13007C" d="M714.79,209.403"/>
	<g>
		<g>

				<line fill="none" stroke="#13007C" stroke-width="2.1052" stroke-linecap="round" stroke-linejoin="round" x1="69" y1="314.996" x2="764.579" y2="314.996"/>
			<g>
				<polygon fill="#13007C" points="754.116,327.911 751.962,325.599 763.367,314.999 751.962,304.397 754.116,302.084
					768.004,314.999 				"/>
			</g>
		</g>
	</g>
</g>
</svg>
