<?xml version="1.0" encoding="utf-8"?>
<!-- Generator: Adobe Illustrator 16.0.0, SVG Export Plug-In . SVG Version: 6.00 Build 0)  -->
<!DOCTYPE svg PUBLIC "-//W3C//DTD SVG 1.1//EN" "http://www.w3.org/Graphics/SVG/1.1/DTD/svg11.dtd">
<svg version="1.1" id="Calque_1" xmlns="http://www.w3.org/2000/svg" xmlns:xlink="http://www.w3.org/1999/xlink" x="0px" y="0px"
	 width="244.488px" height="565.471px" viewBox="0 0 244.488 565.471" enable-background="new 0 0 244.488 565.471"
	 xml:space="preserve">
<path fill-rule="evenodd" clip-rule="evenodd" fill="#13007C" d="M199.102,498.703c-0.618-2.865-0.827-5.842-0.925-8.778
	c-0.556-17.155-0.487-34.35-1.667-51.465c-1.072-15.624-3.43-31.161-5.262-46.737c-0.95-8.029-2.562-16.024-2.884-24.078
	c-1.033-25.948-1.604-51.917-2.378-77.884c-0.2-6.611-0.984-13.248-0.663-19.834c0.8-16.205-1.446-32.227-2.396-48.318
	c-1.004-17.099-3.532-34.148-3.767-51.242c-0.199-15.032-2.114-29.656-5.238-44.553c0.731-0.555,1.55-1.047,2.389-1.534
	c-0.863-2.997-1.14-6.09-0.857-9.179c-2.593,0.977-5.174,2-7.854,2.434c-14.938,2.422-29.606,6.161-45.007,6.161
	c-19.088,0-38.168,1.701-57.264,2.373c-5.108,0.181-10.306-0.394-15.375-1.186c-7.199-1.123-8.526-3.284-7.715-11.496
	c9.958,0.492,19.952,0.992,29.943,1.476c10.709,0.519,21.439,0.716,32.118,1.607c13.94,1.163,27.821,0.159,41.691-0.674
	c8.273-0.497,16.53-1.657,24.727-2.959c2.89-0.458,4.77-1.504,5.812-3.084c0.269-0.852,0.532-1.698,0.888-2.525
	c0.179-1.417,0.024-3.055-0.521-4.982c-0.596-2.087-1.044-4.316-0.999-6.467c0.336-16.863,0.73-33.725,1.315-50.58
	c0.092-2.792,0.569-5.588-1.817-7.447c-1.911-1.481-2.553-3.167-2.66-5.023c-0.166-0.212-0.337-0.427-0.443-0.714
	c-2.066-5.518-7.889-7.544-15.171-7.805c-8.074,2.432-16.348,4.095-24.736,5.287c-13.549,1.926-27.146,3.5-40.691,5.461
	c-4.809,0.697-9.483,2.278-14.277,3.118c-14.875,2.609-29.786,4.999-44.65,7.652c-1.729,0.31-4.119,1.359-4.721,2.721
	c-2.351,5.301-4.984,10.682-2.945,16.865c0.917,2.781,1.511,5.68,2.083,8.558c1.334,6.711,2.575,13.441,3.841,20.167
	c0.316,1.684,0.694,3.365,0.87,5.064c0.66,6.365,1.289,12.733,1.938,19.099c0.024,0.081,0.076,0.127,0.096,0.211
	c0.667,2.917,1.539,6.154,3.334,8.602c1.572,2.144,4.115,3.362,6.081,5.108c1.125,0.999,0.873,2.509-0.02,3.452
	c-1.076,2.991-2.233,5.286-2.363,7.598c-0.76,13.427-2.999,26.811-0.192,40.33c1.586,7.638,2.205,15.496,2.936,23.287
	c1.715,18.255,3.066,36.545,4.896,54.789c1.097,10.955,3.066,21.821,4.177,32.774c1.012,9.983,1.267,20.034,2.076,30.041
	c1.559,19.283,3.209,38.558,4.94,57.821c2.699,30.012,5.537,60.014,8.236,90.025c1.25,13.914,2.359,27.839,3.416,41.773
	c0.244,3.207-0.279,6.724,4.095,7.41c0.519,0.083,1.021-0.053,1.503-0.297c-0.044-0.04-0.208-0.107-0.151-0.127
	c1.325-0.39,2.501-1.257,2.728-2.728c0.156-1.014,1.013-0.78,0.516-3.007c0.058-0.59,0.079-1.193,0.038-1.808
	c-0.582-8.721-1.223-17.442-2.034-26.143c-1.155-12.409-2.479-24.804-3.75-37.203c-0.473-4.624-0.969-9.243-1.5-13.856
	c-1.843-16.023-4.033-32.015-5.477-48.072c-1.509-16.828-2.041-33.744-3.498-50.576c-1.347-15.611-3.339-31.158-5.069-46.729
	c-2.03-18.253-4.131-36.497-6.102-54.754c-1.236-11.442-2.342-22.896-3.404-34.355c-0.767-8.271-0.328-16.813-2.29-24.774
	c-2.911-11.83,0.297-22.777,2.424-33.98c0.319-1.688,1.111-2.843,2.257-3.584c2.302-3.003,5.787-5.084,9.673-4.764
	c0.101,0.007,0.201,0.024,0.3,0.032c0.453-0.018,0.898-0.085,1.364-0.032c0.483,0.053,0.965,0.053,1.448,0.095
	c1.088-0.3,2.243-0.512,3.542-0.512c0.955,0,1.843,0.1,2.685,0.266c26.781,0.609,53.008-1.359,79.277-4.297
	c0.453-0.064,0.906-0.12,1.375-0.141c0.292-0.035,0.583-0.059,0.881-0.093c0.005,0.032,0.005,0.066,0.015,0.098
	c0.292,0.003,0.574-0.012,0.867,0.008c0.16-0.073,0.292-0.173,0.469-0.234c1.826-0.66,3.438-1.206,5.388-1.408
	c0.122-0.327,0.243-0.656,0.351-1.028c0.594,0.48,1.053,0.907,1.481,1.293c0.749,0.288,1.393,0.777,1.925,1.403
	c6.108,2.373,7.995,6.96,8.198,13.239c0.371,11.487,1.356,22.953,2.102,34.427c0.794,12.231,1.533,24.467,2.425,36.693
	c1.127,15.394,2.768,30.759,3.465,46.172c0.687,15.179,0.379,30.402,0.682,45.603c0.264,13.242,1.375,26.494,1.027,39.717
	c-0.521,19.691,2.101,39.112,3.708,58.635c0.965,11.688,4.063,23.146,3.323,35.034c-0.36,5.832,0.136,11.723,0.347,17.584
	c0.623,17.397,1.368,34.791,1.851,52.193c0.054,1.92-0.716,4.639-2.101,5.69c-5.217,3.996-10.582,7.967-16.384,11.002
	c-9.52,4.979-20.088,6.14-30.68,6.509c-8.759,0.312-17.188-0.497-25.188-2.737c-10.734-1.949-21.445-6.062-29.817-12.57
	c-0.107-0.083-0.142-0.181-0.227-0.268c-1.579-0.843-3.708-1.661-5.368-1.774c-0.265,2.758-1.525,5.067-3.093,5.861
	c4.906,4.458,16.546,10.626,22.324,13.018c12.428,5.146,25.627,8.663,39.327,7.688c9.471-0.672,19.27-1.14,28.185-3.999
	c8.673-2.783,16.945-7.538,23.736-14.232C197.67,516.651,201.291,508.759,199.102,498.703z M47.055,51.602
	c27.459-6.195,55.317-9.941,83.205-13.544c9.442-1.221,18.782-3.259,28.18-4.851c1.354-0.226,2.776-0.031,5.087-0.031
	c-1.238,5.537-4.161,8.092-8.254,8.492c-6.689,0.65-12.843,2.58-18.825,5.532c-2.13,1.055-4.667,1.483-7.064,1.771
	c-14.071,1.678-28.156,3.186-42.224,4.85c-4.851,0.575-9.653,1.898-14.506,2.066c-10.66,0.373-21.336,0.221-32.004,0.285
	l-0.482-1.806C42.458,53.426,44.673,52.141,47.055,51.602z M38.505,98.992c-0.78-6.299-1.036-12.665-1.496-19.003
	c-0.385-5.305-0.736-10.611-1.17-16.901c4.802,0,9.121,0.071,13.436-0.014c9.271-0.183,18.579-0.012,27.807-0.77
	c17.058-1.398,34.1-3.099,51.079-5.23c5.968-0.748,11.746-3.092,17.592-4.782c2.515-0.731,4.989-1.607,7.455-2.504
	c4.745-1.727,9.467-3.518,14.606-5.435c0.4,0.872,1.237,1.908,1.315,2.996c1.276,17.038,1.77,34.046-1.238,51.003
	c-0.706,3.985-2.499,5.629-6.393,6.687c-11.487,3.13-23.272,3.591-34.951,3.552c-18.34-0.06-36.676-1.21-55.01-2.007
	c-8.802-0.382-17.595-0.945-26.385-1.547C40.264,104.702,39.109,103.847,38.505,98.992z"/>
<path fill-rule="evenodd" clip-rule="evenodd" fill="#13007C" d="M113.991,462.596c0.08,3.6-1.703,5.782-4.916,6.012
	c-3.21,0.229-6.076-1.964-6.244-4.779c-0.173-2.909,2.626-5.232,6.54-5.428C112.465,458.245,113.924,459.57,113.991,462.596z"/>
<path fill-rule="evenodd" clip-rule="evenodd" fill="#13007C" d="M144.033,473.343c-0.098-2.923,2.314-5.057,5.755-5.087
	c3.322-0.024,5.257,1.817,5.563,5.316c0.277,3.127-1.852,5.397-5.178,5.544C146.922,479.252,144.146,476.652,144.033,473.343z"/>
<path fill-rule="evenodd" clip-rule="evenodd" fill="#13007C" d="M111.683,498.703c-3.196,0.175-5.837-2.124-5.888-5.131
	c-0.049-2.782,2.777-5.538,5.64-5.51c3.003,0.028,5.465,2.134,5.457,4.658C116.872,495.956,114.619,498.546,111.683,498.703z"/>
<path fill-rule="evenodd" clip-rule="evenodd" fill="#13007C" d="M147.049,368.356c2.748-0.059,4.872,0.643,4.823,3.985
	c-0.059,3.596-2.213,6.118-5.076,5.954c-2.778-0.167-6.49-2.914-6.665-4.941C139.898,370.651,142.976,368.429,147.049,368.356z"/>
<path fill-rule="evenodd" clip-rule="evenodd" fill="#13007C" d="M152.662,315.348c-2.991-0.01-5.622-2.602-5.617-5.524
	c0.005-3.099,3.031-5.662,6.476-5.428c3.113,0.214,3.95,2.441,4.112,5.018C157.835,312.756,155.575,315.357,152.662,315.348z"/>
<path fill-rule="evenodd" clip-rule="evenodd" fill="#13007C" d="M128.341,420.116c-2.992-0.009-5.623-2.602-5.619-5.524
	c0.006-3.099,3.031-5.661,6.476-5.427c3.113,0.214,3.952,2.44,4.112,5.018C133.515,417.525,131.253,420.126,128.341,420.116z"/>
<path fill-rule="evenodd" clip-rule="evenodd" fill="#13007C" d="M150.791,431.965c-2.991-0.01-5.623-2.602-5.617-5.525
	c0.005-3.099,3.03-5.661,6.475-5.428c3.114,0.215,3.951,2.441,4.112,5.02C155.965,429.374,153.705,431.975,150.791,431.965z"/>
<path fill-rule="evenodd" clip-rule="evenodd" fill="#13007C" d="M106.514,374.592c-2.989-0.01-5.622-2.603-5.618-5.525
	c0.006-3.099,3.031-5.661,6.478-5.428c3.111,0.215,3.948,2.441,4.11,5.019C111.69,372,109.427,374.601,106.514,374.592z"/>
<path fill-rule="evenodd" clip-rule="evenodd" fill="#13007C" d="M130.211,350.895c-2.991-0.011-5.623-2.603-5.617-5.525
	c0.004-3.1,3.03-5.662,6.475-5.428c3.112,0.215,3.951,2.441,4.111,5.018C135.385,348.302,133.125,350.904,130.211,350.895z"/>
<path fill-rule="evenodd" clip-rule="evenodd" fill="#13007C" d="M145.491,345.282c-2.991-0.01-5.623-2.602-5.617-5.525
	c0.004-3.098,3.029-5.661,6.474-5.428c3.113,0.215,3.952,2.441,4.112,5.02C150.665,342.69,148.405,345.292,145.491,345.282z"/>
<path fill-rule="evenodd" clip-rule="evenodd" fill="#13007C" d="M133.329,284.167c-2.991-0.01-5.621-2.6-5.617-5.522
	c0.006-3.102,3.031-5.665,6.476-5.428c3.113,0.214,3.952,2.439,4.112,5.016C138.503,281.575,136.243,284.176,133.329,284.167z"/>
<path fill-rule="evenodd" clip-rule="evenodd" fill="#13007C" d="M93.729,259.845c-2.989-0.01-5.623-2.599-5.617-5.522
	c0.004-3.101,3.03-5.664,6.477-5.427c3.11,0.214,3.949,2.439,4.109,5.016C98.907,257.254,96.643,259.855,93.729,259.845z"/>
<path fill-rule="evenodd" clip-rule="evenodd" fill="#13007C" d="M105.889,230.847c-2.988-0.009-5.621-2.599-5.617-5.522
	c0.006-3.101,3.03-5.663,6.478-5.427c3.111,0.214,3.949,2.438,4.11,5.016C111.067,228.255,108.803,230.856,105.889,230.847z"/>
<path fill-rule="evenodd" clip-rule="evenodd" fill="#13007C" d="M131.458,237.083c-2.991-0.009-5.622-2.599-5.617-5.522
	c0.004-3.101,3.03-5.663,6.476-5.427c3.113,0.214,3.95,2.438,4.11,5.016C136.632,234.492,134.373,237.093,131.458,237.083z"/>
<path fill-rule="evenodd" clip-rule="evenodd" fill="#13007C" d="M160.457,270.135c-2.991-0.009-5.622-2.599-5.616-5.522
	c0.004-3.101,3.029-5.664,6.474-5.427c3.113,0.214,3.952,2.439,4.112,5.016C165.631,267.543,163.371,270.145,160.457,270.135z"/>
<path fill-rule="evenodd" clip-rule="evenodd" fill="#13007C" d="M105.266,326.573c-2.988-0.01-5.621-2.602-5.617-5.524
	c0.004-3.099,3.03-5.662,6.478-5.427c3.111,0.214,3.948,2.441,4.108,5.018C110.443,323.981,108.18,326.583,105.266,326.573z"/>
<path fill-rule="evenodd" clip-rule="evenodd" fill="#13007C" d="M148.837,396.741c-0.156-2.593,3.751-5.876,7.288-6.071
	c2.266-0.127,3.795,0.77,4.049,3.201c0.331,3.26-2.704,7.323-5.593,7.527C152.077,401.574,148.973,399.059,148.837,396.741z"/>
<path fill-rule="evenodd" clip-rule="evenodd" fill="#13007C" d="M138.485,451.161c-0.011,3.061-2.188,5.481-4.727,5.263
	c-2.913-0.244-5.74-3.05-5.691-5.643c0.049-2.553,3.304-5.516,5.896-5.378C136.263,445.524,138.503,448.375,138.485,451.161z"/>
<path fill-rule="evenodd" clip-rule="evenodd" fill="#13007C" d="M105.015,446.528c0.006,4.229-1.78,6.582-5.021,6.626
	c-2.805,0.034-5.681-2.947-5.461-5.661c0.192-2.373,4.024-5.306,7.042-5.311C104.506,442.177,105.238,443.995,105.015,446.528z"/>
<path fill-rule="evenodd" clip-rule="evenodd" fill="#13007C" d="M99.401,422.621c-3.983-0.024-6.824-2.65-6.371-5.16
	c0.439-2.431,1.511-4.74,4.585-4.905c2.775-0.156,5.491,2.816,4.789,6.021C102.027,420.301,100.129,421.695,99.401,422.621z"/>
<path fill-rule="evenodd" clip-rule="evenodd" fill="#13007C" d="M140.667,512.524c-2.671-0.038-4.994-2.562-4.912-5.329
	c0.068-2.305,2.914-4.916,5.477-4.81c3.001,0.117,4.244,2.071,4.346,4.824C145.675,509.976,143.206,512.559,140.667,512.524z"/>
<path fill-rule="evenodd" clip-rule="evenodd" fill="#13007C" d="M126.182,389.354c-0.034-2.845,2.752-5.808,5.559-5.715
	c2.788,0.093,3.703,1.896,3.665,4.443c-0.049,3.06-1.263,5.238-4.483,5.681C128.432,394.104,126.211,391.926,126.182,389.354z"/>
<path fill-rule="evenodd" clip-rule="evenodd" fill="#13007C" d="M162.693,449.846c0.045-3.041,2.246-5.165,5.175-4.877
	c2.45,0.238,4.224,1.35,4.243,4.097c0.021,2.655-2.68,5.164-5.286,5.038C164.437,453.987,162.66,452.155,162.693,449.846z"/>
<path fill-rule="evenodd" clip-rule="evenodd" fill="#FFFFFF" d="M35.839,63.087c4.802,0,9.121,0.071,13.436-0.014
	c9.271-0.183,18.579-0.012,27.807-0.77c17.058-1.398,34.1-3.099,51.079-5.23c5.968-0.748,11.746-3.092,17.592-4.782
	c2.515-0.731,4.989-1.607,7.455-2.504c4.745-1.727,9.467-3.518,14.606-5.435c0.4,0.872,1.237,1.908,1.315,2.996
	c1.276,17.038,1.77,34.046-1.238,51.003c-0.706,3.985-2.499,5.629-6.393,6.687c-11.487,3.13-23.272,3.591-34.951,3.552
	c-18.34-0.06-36.676-1.21-55.01-2.007c-8.802-0.382-17.595-0.945-26.385-1.547c-4.889-0.334-6.043-1.189-6.647-6.044
	c-0.78-6.299-1.036-12.665-1.496-19.003C36.625,74.684,36.273,69.377,35.839,63.087z"/>
<path fill-rule="evenodd" clip-rule="evenodd" fill="#FFFFFF" d="M163.527,33.176c-1.238,5.537-4.161,8.092-8.254,8.492
	c-6.689,0.65-12.843,2.58-18.825,5.532c-2.13,1.055-4.667,1.483-7.064,1.771c-14.071,1.678-28.156,3.186-42.224,4.85
	c-4.851,0.575-9.653,1.898-14.506,2.066c-10.66,0.373-21.336,0.221-32.004,0.285c-0.161-0.602-0.321-1.204-0.482-1.806
	c2.292-0.94,4.507-2.226,6.889-2.765c27.459-6.195,55.317-9.941,83.205-13.544c9.442-1.221,18.782-3.259,28.18-4.851
	C159.794,32.981,161.216,33.176,163.527,33.176z"/>
<polygon fill-rule="evenodd" clip-rule="evenodd" fill="#13007C" points="175.239,105.574 177.918,106.444 176.906,124.264 
	173.845,124.029 "/>
<rect x="75.41" y="515.696" fill-rule="evenodd" clip-rule="evenodd" fill="#13007C" width="5.302" height="5.534"/>
</svg>
