<?xml version="1.0" encoding="utf-8"?>
<!-- Generator: Adobe Illustrator 16.0.0, SVG Export Plug-In . SVG Version: 6.00 Build 0)  -->
<!DOCTYPE svg PUBLIC "-//W3C//DTD SVG 1.1//EN" "http://www.w3.org/Graphics/SVG/1.1/DTD/svg11.dtd">
<svg version="1.1" id="Calque_1" xmlns="http://www.w3.org/2000/svg" xmlns:xlink="http://www.w3.org/1999/xlink" x="0px" y="0px"
	 width="269.987px" height="224.989px" viewBox="0 0 269.987 224.989" enable-background="new 0 0 269.987 224.989"
	 xml:space="preserve">
<path fill-rule="evenodd" clip-rule="evenodd" fill="#13007C" d="M129.939,107.964c0.112,3.336,0.221,6.524,0.325,9.713
	c0.013,0.392,0.062,0.795-0.007,1.175c-0.15,0.816-0.801,1.17-1.631,1.022c-0.461-0.082-0.946-0.095-1.415-0.061
	c-1.119,0.082-2.235,0.314-3.351,0.302c-5.651-0.061-11.302-0.166-16.952-0.283c-3.389-0.07-6.78-0.336-10.165-0.255
	c-4.829,0.117-9.623-0.424-14.436-0.521c-1.47-0.029-2.943,0.181-4.417,0.205c-2.158,0.035-4.317,0.017-6.475-0.008
	c-1.459-0.018-2.918-0.072-4.376-0.134c-2.739-0.116-5.482-0.18-8.212-0.408c-1.258-0.105-2.49-0.542-3.731-0.841
	c-3.171-0.765-6.42-1.491-9.607-0.616c-3.43,0.942-7.003,0.878-10.416,1.869c-1.075,0.312-2.343,0.067-3.508-0.06
	c-1.75-0.19-3.488-0.5-5.23-0.765c-0.338-0.052-0.679-0.104-1.007-0.195c-0.518-0.143-0.677-0.527-0.603-1.025
	c0.079-0.525,0.435-0.806,0.922-0.765c0.78,0.064,1.554,0.215,2.326,0.35c1.448,0.252,2.891,0.537,4.342,0.775
	c1.219,0.2,2.408,0.124,3.636-0.174c1.521-0.368,3.104-0.474,4.66-0.705c1.116-0.165,1.28-0.36,1.164-1.391
	c-0.28-2.483-0.58-4.965-0.85-7.449c-0.053-0.484-0.03-0.981-0.007-1.471c0.092-1.913,0.272-3.826,0.275-5.739
	c0.002-1.548,0.164-3.036,0.717-4.483c0.098-0.258,0.114-0.547,0.186-0.915c-1.815-0.159-3.45-0.644-4.814-1.757
	c-0.476-0.39-0.92-0.888-1.205-1.428c-0.521-0.99-1.068-2.012-1.325-3.086c-0.441-1.843,0.165-3.588,0.913-5.268
	c0.14-0.312,0.361-0.592,0.48-0.911c0.688-1.84,2.16-2.787,3.928-3.249c1.075-0.28,2.229-0.282,3.351-0.352
	c0.916-0.057,1.741,0.228,2.438,0.858c0.211,0.191,0.48,0.318,0.581,0.384c1.679-0.889,3.2-1.775,4.79-2.513
	c1.495-0.692,3.087-1.056,4.719-0.424c0.59,0.229,1.167,0.519,1.704,0.854c1.869,1.166,3.413,2.705,4.37,4.672
	c0.994,2.042,0.47,4.062-0.837,5.812c-0.544,0.728-0.782,1.328-0.658,2.257c0.112,0.837-0.104,1.754-0.331,2.593
	c-0.776,2.877-2.199,5.35-4.739,7.047c-1.259,0.842-2.686,1.179-4.178,1.22c-1.313,0.035-2.627,0.007-4.097,0.007
	c-0.185,1.079-0.521,2.271-0.569,3.473c-0.104,2.596-0.061,5.197-0.076,7.796c-0.001,0.196,0.005,0.394,0.016,0.59
	c0.096,1.77,0.147,1.81,1.988,1.88c2.899,0.112,5.776,0.403,8.584,1.183c2.681,0.744,5.437,0.785,8.186,0.831
	c2.652,0.045,5.307,0.013,7.959,0.014c0.923,0.001,1.846,0,2.815,0c0-1.571,0.113-2.941-0.02-4.286
	c-0.522-5.278-1.152-10.546-1.676-15.824c-0.169-1.709-0.056-3.444-0.208-5.154c-0.347-3.865-0.779-7.722-1.176-11.582
	c-0.055-0.536-0.129-1.071-0.157-1.608c-0.174-3.335-0.309-6.672-0.52-10.004c-0.077-1.214-0.324-2.418-0.504-3.702
	c0.789-0.057,1.46-0.181,2.116-0.123c0.394,0.035,0.799,0.304,1.138,0.551c3.378,2.463,6.87,4.727,10.716,6.413
	c1.431,0.627,2.795,1.404,4.366,2.203c0.182-1.207,0.048-2.304,0.029-3.4c-0.021-1.219,0.048-2.438,0.077-3.658
	c0.011-0.439-0.033-0.888,0.042-1.315c0.1-0.566,0.215-1.155,0.468-1.662c0.233-0.466,0.788-0.566,1.104-0.126
	c1.557,2.171,3.97,3.159,6.133,4.469c3.106,1.881,6.422,3.429,9.183,5.852c0.134,0.118,0.331,0.162,0.61,0.293
	c0.39-1.335,0.039-2.586,0.004-3.818c-0.03-1.021-0.248-2.039-0.417-3.053c-0.12-0.716-0.259-1.434-0.461-2.129
	c-0.271-0.928-0.204-1.305,0.422-1.651c0.679-0.376,1.105-0.124,1.646,0.405c1.049,1.024,2.21,1.943,3.385,2.827
	c2.311,1.74,4.654,3.438,7,5.131c2.385,1.722,4.788,3.418,7.186,5.121c0.024,0.017,0.088-0.022,0.338-0.093
	c0.024-1.382,0.038-2.831,0.079-4.28c0.106-3.731,0.237-7.463,0.333-11.194c0.044-1.719,0.047-3.439,0.034-5.158
	c-0.017-2.457-0.037-4.914-0.107-7.369c-0.121-4.225-0.292-8.448-0.424-12.673c-0.071-2.308-0.085-4.617-0.163-6.924
	c-0.029-0.881-0.164-1.759-0.251-2.639c-0.143-1.434,0.74-2.706,2.164-3.051c1.863-0.451,3.729-0.887,5.603-1.296
	c1.19-0.26,1.589-0.107,1.813,1.082c0.4,2.114,0.658,4.258,0.908,6.397c0.381,3.263,0.717,6.531,1.046,9.801
	c0.093,0.918,0.055,1.85,0.145,2.768c0.466,4.73,1.01,9.453,1.418,14.188c0.34,3.948,0.793,7.887,1.086,11.838
	c0.166,2.249,0.156,4.513,0.186,6.771c0.032,2.553-0.003,5.106,0.033,7.659c0.041,2.934,0.113,5.867,0.2,8.8
	c0.078,2.647,0.109,5.301,0.313,7.939c0.402,5.19,0.909,10.373,1.381,15.559c0.021,0.236,0.12,0.466,0.206,0.781
	c1.28,0.091,2.544,0.24,3.809,0.26c2.588,0.039,5.18-0.07,7.764,0.031c2.098,0.082,4.201,0.124,6.246,0.876
	c1.17,0.432,2.514,0.387,3.774,0.585c0.529,0.083,1.062,0.199,1.564,0.382c0.444,0.161,0.804,0.548,0.58,1.025
	c-0.128,0.271-0.56,0.492-0.889,0.554c-0.366,0.068-0.774-0.058-1.161-0.119c-2.997-0.477-5.99-0.986-8.994-1.422
	c-0.812-0.118-1.654-0.016-2.483-0.018c-2.009-0.006-4.019-0.004-6.028-0.026c-0.982-0.012-1.963-0.096-2.945-0.104
	c-1.082-0.01-2.15,0.028-3.115,0.667c-0.305,0.201-0.751,0.187-1.134,0.267c-0.952,0.198-1.919,0.343-2.853,0.604
	c-1.057,0.297-1.63,0.009-1.724-1.082c-0.193-2.246-0.29-4.502-0.523-6.743c-0.137-1.312-0.442-2.609-0.708-3.907
	c-0.13-0.637-0.494-1.022-1.229-1.023C131.886,107.473,130.909,107.406,129.939,107.964z M134.204,25.458
	c-1.702,0.364-3.128,0.696-4.565,0.968c-1.192,0.226-1.26,0.274-1.213,1.525c0.084,2.257,0.148,4.514,0.249,6.77
	c0.163,3.633,0.394,7.263,0.511,10.896c0.104,3.244,0.095,6.492,0.135,9.738c0.029,2.307,0.163,4.618,0.065,6.92
	c-0.203,4.814-0.383,9.623,0.036,14.434c0.086,0.982-0.294,1.787-0.838,2.56c-0.209,0.296-0.397,0.636-0.485,0.983
	c-0.255,1.014-0.802,1.249-1.682,0.642c-0.402-0.277-0.753-0.629-1.146-0.922c-4.291-3.19-8.562-6.409-12.901-9.534
	c-0.861-0.621-1.658-1.477-2.794-1.684c-0.056,0.138-0.094,0.185-0.09,0.229c0.189,2.447,0.373,4.895,0.587,7.34
	c0.023,0.266,0.182,0.549,0.351,0.766c0.972,1.251,0.829,1.819-0.812,2.529c-5.083-4.861-11.335-8.086-17.603-11.676
	c0,1.856-0.055,3.47,0.017,5.076c0.057,1.26,0.054,2.532,0.596,3.744c0.325,0.727,0.105,1.447-0.782,2.008
	c-0.382-0.238-0.842-0.482-1.254-0.79c-1.61-1.202-3.162-2.496-5.045-3.271c-3.243-1.334-6.212-3.149-9.107-5.104
	c-0.794-0.536-1.631-1.008-2.667-1.643c0.11,0.813,0.206,1.333,0.248,1.857c0.327,4.155,0.644,8.312,0.962,12.468
	c0.082,1.063,0.124,2.132,0.242,3.192c0.254,2.289,0.577,4.571,0.816,6.861c0.499,4.782,0.961,9.569,1.439,14.354
	c0.335,3.354,0.671,6.709,1.014,10.138c0.416,0.042,0.899,0.119,1.385,0.135c2.896,0.095,5.792,0.186,8.688,0.257
	c3.234,0.08,6.467,0.165,9.702,0.197c6.241,0.062,12.482,0.074,18.723,0.142c2.108,0.022,4.217,0.146,6.324,0.232
	c1.319,0.055,2.639,0.127,3.957,0.195c0.468,0.024,0.768-0.163,0.798-0.648c0.024-0.392,0.014-0.786,0.002-1.179
	c-0.091-2.945-0.188-5.891-0.277-8.836c-0.041-1.36,0.477-1.844,1.836-1.843c1.515,0,3.029-0.056,4.545-0.088
	c1.046-0.023,1.596,0.309,1.773,1.333c0.384,2.224,0.691,4.462,0.999,6.698c0.184,1.336,0.308,2.68,0.476,4.175
	c1.031-0.165,1.864-0.299,2.614-0.418c-0.438-6.595-0.947-12.96-1.256-19.335c-0.219-4.517-0.255-9.047-0.216-13.569
	c0.065-7.674-0.036-15.33-1.007-22.959c-0.304-2.385-0.315-4.806-0.528-7.203c-0.335-3.768-0.748-7.528-1.086-11.296
	c-0.154-1.713-0.168-3.438-0.319-5.15c-0.25-2.839-0.543-5.674-0.854-8.507C134.639,28.005,134.419,26.857,134.204,25.458z
	 M43.913,115.892c1.008-0.11,0.911-0.72,0.911-1.241c-0.002-2.064,0.036-4.131-0.047-6.192c-0.108-2.725,0.115-5.396,0.867-8.023
	c0.308-1.075,0.523-1.207,1.689-1.008c1.111,0.188,2.224,0.412,3.345,0.481c1.545,0.096,2.958-0.21,4.258-1.245
	c2.02-1.609,3.175-3.677,3.903-6.088c0.291-0.962,0.315-1.854-0.195-2.696c-0.446-0.738-0.351-1.145,0.395-1.674
	c2.147-1.525,2.324-4.458,0.464-6.29c-0.665-0.654-1.31-1.346-2.054-1.898c-0.968-0.719-1.93-1.359-3.309-1.31
	c-2.05,0.075-3.614,1.116-5.208,2.144c-0.751,0.484-1.064,1.251-0.788,2.191c0.151,0.515,0.294,1.053,0.307,1.583
	c0.022,0.933-0.638,1.274-1.489,0.875c-1.023-0.481-1.192-1.442-1.201-2.358c-0.01-1.089-0.627-1.638-1.456-1.994
	c-1.575-0.679-4.059-0.527-5.306,0.934c-0.69,0.808-1.342,1.705-1.773,2.669c-1.027,2.293-0.708,4.486,0.888,6.448
	c0.327,0.402,0.722,0.779,1.156,1.058c1.217,0.778,2.518,0.943,3.941,0.551c1.223-0.337,1.785,0.333,1.405,1.55
	c-0.087,0.279-0.239,0.538-0.356,0.809c-0.781,1.818-1.293,3.67-1.148,5.698c0.094,1.315-0.076,2.649-0.11,3.976
	c-0.033,1.275-0.13,2.557-0.044,3.825c0.108,1.61,0.363,3.211,0.573,4.813C43.637,114.284,43.784,115.084,43.913,115.892z"/>
<path fill-rule="evenodd" clip-rule="evenodd" fill="#13007C" d="M237.529,166.351c-2.254-1.108-4.478-2.283-6.722-3.416
	c-3.46-1.746-6.858-3.631-10.404-5.182c-4.777-2.089-9.588-4.097-14.28-6.376c-2.72-1.323-5.506-2.513-8.188-3.906
	c-2.22-1.153-4.322-2.534-6.491-3.785c-1.558-0.897-3.122-1.789-4.719-2.615c-2.576-1.336-5.256-2.491-7.762-3.945
	c-4.902-2.847-9.713-5.854-14.571-8.779c-1.266-0.763-2.729-1.286-3.811-2.249c-1.394-1.24-2.866-1.596-4.608-1.372
	c-0.384,0.049-0.775,0.036-1.163,0.033c-3.038-0.02-6.08-0.185-9.109-0.036c-5.868,0.289-11.728,0.775-17.592,1.138
	c-5.217,0.322-10.438,0.607-15.657,0.866c-1.995,0.099-3.997,0.104-5.994,0.106c-2.445,0.003-4.892-0.119-7.333-0.049
	c-3.606,0.107-7.208,0.337-10.811,0.514c-0.013-0.144-0.024-0.286-0.036-0.429c-3.261,0.392-6.527,0.753-9.777,1.212
	c-0.469,0.067-1.096,0.535-1.252,0.964c-0.273,0.748,0.443,1.146,1.022,1.419c0.812,0.384,1.683,0.642,2.502,1.013
	c4.101,1.86,8.279,3.572,12.263,5.655c4.339,2.269,8.492,4.892,12.728,7.355c1.229,0.715,2.583,1.27,3.677,2.15
	c2.908,2.342,6.422,3.562,9.609,5.378c3.188,1.815,6.507,3.396,9.763,5.096c3.889,2.028,7.738,4.135,11.662,6.09
	c3.463,1.725,7.013,3.271,10.51,4.929c1.341,0.636,2.628,1.379,3.957,2.041c2.588,1.291,5.179,2.576,7.787,3.823
	c0.737,0.354,1.544,0.816,2.313,0.807c3.868-0.05,7.738-0.195,11.603-0.395c4.385-0.227,8.765-0.571,13.148-0.817
	c4.701-0.266,9.404-0.562,14.11-0.693c6.201-0.175,12.409-0.105,18.608-0.33c3.682-0.134,7.343-0.371,10.999,0.253
	c0.892,0.151,1.795,0.261,2.696,0.311c1.399,0.08,1.955-0.498,2.061-1.866c0.042-0.547,0.216-1.116,0.461-1.61
	C239.585,167.919,239.332,167.239,237.529,166.351z M233.164,169.998c-4.001-0.606-7.996-0.239-11.984,0.025
	c-4.888,0.324-9.772,0.236-14.662,0.235c-6.515-0.002-13.028,0.15-19.484,1.107c-2.95,0.438-5.89,0.517-8.864,0.468
	c-3.355-0.056-6.718,0.114-10.073,0.273c-1.534,0.073-2.883-0.211-4.262-0.945c-2.503-1.332-5.109-2.473-7.682-3.674
	c-4.152-1.938-8.346-3.791-12.457-5.81c-3.993-1.959-7.896-4.098-11.855-6.128c-4.598-2.356-9.225-4.656-13.813-7.031
	c-2.113-1.094-4.187-2.271-6.23-3.492c-0.208-0.124-0.428-0.251-0.636-0.392c-0.094-0.009-0.188-0.035-0.276-0.105
	c-0.727-0.579-1.523-1.048-2.286-1.575c-0.688-0.477-1.437-0.675-2.202-0.983c-0.09-0.036-0.162-0.1-0.221-0.174
	c-7.122-3.975-14.249-7.952-21.471-11.982c0.849-0.238,1.756-0.368,2.663-0.277c3.615,0.358,7.216,0.077,10.829-0.095
	c2.439-0.117,4.896,0.187,7.34,0.099c7.031-0.249,14.06-0.594,21.089-0.916c2.574-0.118,5.146-0.279,7.721-0.418
	c4.439-0.238,8.877-0.492,13.317-0.699c1.026-0.049,2.06,0.091,3.091,0.099c2.243,0.019,4.487,0.005,6.779,0.005
	c0.894,1.194,0.87,2.654,0.995,4.05c0.205,2.317,0.327,4.644,0.461,6.966c0.037,0.642,0.106,1.317-0.04,1.927
	c-0.347,1.437,0.031,2.419,1.578,2.908c1.034-0.296,1.364-1.06,1.29-2.17c-0.212-3.155-0.371-6.315-0.554-9.474
	c-0.035-0.621-0.08-1.242-0.146-2.232c0.932,0.4,1.594,0.598,2.164,0.945c3.966,2.416,7.87,4.935,11.879,7.276
	c2.726,1.591,5.613,2.904,8.386,4.418c5.882,3.208,11.696,6.541,17.615,9.676c3.421,1.811,6.977,3.369,10.5,4.978
	c5.804,2.652,11.687,5.134,17.29,8.213c1.803,0.989,3.723,1.761,5.565,2.681c0.792,0.394,1.619,0.82,1.865,2.246
	C235.187,170.019,234.154,170.148,233.164,169.998z"/>
<path fill-rule="evenodd" clip-rule="evenodd" fill="#FFFFFF" d="M134.204,25.458c0.216,1.399,0.436,2.548,0.562,3.707
	c0.311,2.833,0.604,5.668,0.854,8.507c0.151,1.713,0.165,3.438,0.319,5.15c0.338,3.768,0.751,7.528,1.086,11.296
	c0.213,2.397,0.225,4.818,0.528,7.203c0.971,7.629,1.072,15.285,1.007,22.959c-0.039,4.522-0.003,9.053,0.216,13.569
	c0.309,6.375,0.817,12.74,1.256,19.335c-0.75,0.119-1.583,0.253-2.614,0.418c-0.168-1.495-0.292-2.839-0.476-4.175
	c-0.308-2.236-0.615-4.475-0.999-6.698c-0.178-1.024-0.728-1.356-1.773-1.333c-1.516,0.032-3.03,0.088-4.545,0.088
	c-1.359-0.001-1.877,0.482-1.836,1.843c0.089,2.945,0.187,5.891,0.277,8.836c0.012,0.393,0.022,0.787-0.002,1.179
	c-0.03,0.485-0.33,0.673-0.798,0.648c-1.318-0.068-2.638-0.141-3.957-0.195c-2.107-0.087-4.216-0.21-6.324-0.232
	c-6.24-0.067-12.481-0.079-18.723-0.142c-3.234-0.032-6.468-0.117-9.702-0.197c-2.896-0.071-5.792-0.162-8.688-0.257
	c-0.486-0.016-0.97-0.093-1.385-0.135c-0.343-3.429-0.679-6.783-1.014-10.138c-0.479-4.784-0.941-9.571-1.439-14.354
	c-0.239-2.29-0.562-4.572-0.816-6.861c-0.118-1.061-0.161-2.129-0.242-3.192c-0.319-4.156-0.636-8.312-0.962-12.468
	c-0.042-0.524-0.138-1.044-0.248-1.857c1.035,0.635,1.873,1.106,2.667,1.643c2.896,1.954,5.865,3.77,9.107,5.104
	c1.883,0.774,3.435,2.068,5.045,3.271c0.412,0.308,0.872,0.552,1.254,0.79c0.888-0.561,1.107-1.281,0.782-2.008
	c-0.542-1.212-0.539-2.484-0.596-3.744c-0.072-1.606-0.017-3.22-0.017-5.076c6.268,3.59,12.52,6.814,17.603,11.676
	c1.642-0.71,1.784-1.278,0.812-2.529c-0.169-0.217-0.327-0.5-0.351-0.766c-0.214-2.445-0.397-4.893-0.587-7.34
	c-0.004-0.044,0.034-0.091,0.09-0.229c1.136,0.207,1.933,1.062,2.794,1.684c4.339,3.125,8.61,6.344,12.901,9.534
	c0.393,0.293,0.743,0.645,1.146,0.922c0.88,0.607,1.427,0.372,1.682-0.642c0.088-0.348,0.276-0.688,0.485-0.983
	c0.544-0.772,0.924-1.577,0.838-2.56c-0.419-4.811-0.239-9.619-0.036-14.434c0.098-2.302-0.036-4.613-0.065-6.92
	c-0.04-3.246-0.03-6.494-0.135-9.738c-0.117-3.633-0.348-7.263-0.511-10.896c-0.101-2.256-0.165-4.513-0.249-6.77
	c-0.047-1.251,0.021-1.3,1.213-1.525C131.076,26.154,132.501,25.822,134.204,25.458z"/>
<path fill-rule="evenodd" clip-rule="evenodd" fill="#FFFFFF" d="M43.913,115.892c-0.129-0.808-0.276-1.608-0.382-2.414
	c-0.21-1.603-0.464-3.203-0.573-4.813c-0.085-1.269,0.011-2.55,0.044-3.825c0.035-1.326,0.205-2.66,0.11-3.976
	c-0.146-2.028,0.367-3.88,1.148-5.698c0.117-0.271,0.269-0.529,0.356-0.809c0.38-1.217-0.182-1.887-1.405-1.55
	c-1.423,0.393-2.724,0.228-3.941-0.551c-0.435-0.278-0.829-0.655-1.156-1.058c-1.596-1.962-1.915-4.155-0.888-6.448
	c0.431-0.964,1.083-1.861,1.773-2.669c1.247-1.461,3.73-1.612,5.306-0.934c0.828,0.356,1.445,0.905,1.456,1.994
	c0.009,0.916,0.177,1.877,1.201,2.358c0.851,0.399,1.511,0.058,1.489-0.875c-0.013-0.53-0.155-1.068-0.307-1.583
	c-0.276-0.94,0.037-1.707,0.788-2.191c1.593-1.027,3.158-2.068,5.208-2.144c1.379-0.05,2.341,0.591,3.309,1.31
	c0.745,0.553,1.39,1.244,2.054,1.898c1.86,1.832,1.683,4.765-0.464,6.29c-0.745,0.529-0.841,0.936-0.395,1.674
	c0.51,0.843,0.485,1.734,0.195,2.696c-0.729,2.411-1.883,4.479-3.903,6.088c-1.299,1.035-2.712,1.341-4.258,1.245
	c-1.121-0.069-2.234-0.293-3.345-0.481c-1.167-0.199-1.382-0.067-1.689,1.008c-0.752,2.627-0.975,5.299-0.867,8.023
	c0.083,2.062,0.045,4.128,0.047,6.192C44.824,115.172,44.921,115.782,43.913,115.892z"/>
<path fill-rule="evenodd" clip-rule="evenodd" fill="#13007C" d="M206.69,164.009c-1.051,0.026-1.702-0.455-1.779-1.316
	c-0.074-0.832,0.477-1.366,1.44-1.397c1.086-0.034,1.933,0.599,1.916,1.436C208.25,163.531,207.692,163.984,206.69,164.009z"/>
<path fill-rule="evenodd" clip-rule="evenodd" fill="#13007C" d="M136.125,144.132c-0.049,0.972-0.525,1.522-1.336,1.538
	c-0.841,0.016-1.57-0.869-1.515-1.837c0.044-0.773,0.716-1.308,1.599-1.27C135.715,142.599,136.169,143.168,136.125,144.132z"/>
<path fill-rule="evenodd" clip-rule="evenodd" fill="#13007C" d="M131.195,148.219c0.029,0.608-0.932,1.631-1.607,1.71
	c-0.84,0.098-1.666-0.64-1.625-1.497c0.039-0.796,0.418-1.332,1.275-1.406C130.13,146.948,131.165,147.581,131.195,148.219z"/>
<path fill-rule="evenodd" clip-rule="evenodd" fill="#13007C" d="M183.932,151.759c0.171-1.006,0.216-2.05,1.372-2.117
	c0.524-0.029,1.256,0.383,1.562,0.824c0.22,0.315,0.062,1.165-0.234,1.51C185.8,152.942,184.908,152.338,183.932,151.759z"/>
<path fill-rule="evenodd" clip-rule="evenodd" fill="#13007C" d="M186.404,161.177c0.006,0.665-0.847,1.484-1.512,1.448
	c-0.56-0.029-1.494-1.105-1.51-1.792c-0.017-0.784,0.461-1.143,1.187-1.2C185.516,159.559,186.393,160.311,186.404,161.177z"/>
<path fill-rule="evenodd" clip-rule="evenodd" fill="#13007C" d="M169.542,147.458c-0.83,0.015-1.516-0.722-1.519-1.63
	c-0.002-0.827,0.451-1.31,1.269-1.351c0.779-0.039,1.635,0.704,1.708,1.485C171.062,146.606,170.243,147.446,169.542,147.458z"/>
<path fill-rule="evenodd" clip-rule="evenodd" fill="#13007C" d="M146.646,144.675c0.016-0.695,0.67-1.302,1.413-1.308
	c0.806-0.008,1.489,0.687,1.458,1.479c-0.031,0.78-0.807,1.555-1.493,1.488C147.373,146.273,146.63,145.377,146.646,144.675z"/>
<path fill-rule="evenodd" clip-rule="evenodd" fill="#13007C" d="M124.146,140.403c0.001-0.764,0.574-1.335,1.336-1.329
	c0.864,0.006,1.555,0.767,1.497,1.647c-0.04,0.619-0.82,1.33-1.435,1.31C124.949,142.011,124.144,141.075,124.146,140.403z"/>
<path fill-rule="evenodd" clip-rule="evenodd" fill="#13007C" d="M147.952,155.309c0.312-0.197,0.758-0.653,1.277-0.767
	c0.652-0.143,1.55,0.94,1.541,1.669c-0.01,0.692-0.746,1.367-1.401,1.285C148.696,157.413,147.919,156.412,147.952,155.309z"/>
<path fill-rule="evenodd" clip-rule="evenodd" fill="#13007C" d="M194.668,166.734c-0.023,0.799-0.562,1.432-1.236,1.453
	c-0.71,0.021-1.449-0.901-1.411-1.742c0.039-0.796,0.517-1.131,1.24-1.156C194.098,165.26,194.694,165.894,194.668,166.734z"/>
<path fill-rule="evenodd" clip-rule="evenodd" fill="#13007C" d="M162.988,155.712c-0.733,0.048-1.546-0.647-1.608-1.374
	c-0.062-0.727,0.527-1.328,1.315-1.345c0.781-0.019,1.387,0.496,1.459,1.236C164.23,155.03,163.732,155.664,162.988,155.712z"/>
<path fill-rule="evenodd" clip-rule="evenodd" fill="#13007C" d="M197.032,156.709c-0.956,0.031-1.706-0.61-1.777-1.462
	c-0.065-0.765,0.446-1.256,1.323-1.232c0.829,0.021,1.294,0.453,1.317,1.298C197.913,155.989,197.803,156.595,197.032,156.709z"/>
<path fill-rule="evenodd" clip-rule="evenodd" fill="#13007C" d="M171.442,155.095c-0.002-0.788,0.417-1.182,1.179-1.232
	c0.808-0.055,1.665,0.616,1.601,1.326c-0.064,0.698-0.468,1.199-1.217,1.271C172.239,156.536,171.462,155.833,171.442,155.095z"/>
<path fill-rule="evenodd" clip-rule="evenodd" fill="#13007C" d="M220.341,167.653c-1.053,0.056-1.855-0.516-1.892-1.127
	c-0.042-0.705,0.338-1.062,1.028-1.107c0.853-0.057,1.585,0.409,1.493,1.094C220.91,166.97,220.5,167.382,220.341,167.653z"/>
<path fill-rule="evenodd" clip-rule="evenodd" fill="#13007C" d="M182.219,169.017c-0.864-0.03-1.479-0.728-1.426-1.549
	c0.042-0.675,0.468-0.846,1.055-0.816c0.833,0.045,1.369,0.54,1.375,1.295C183.23,168.654,182.869,169.011,182.219,169.017z"/>
</svg>
